Coordinates
version=1
nRows=6
nColumns=46
inDegrees=yes

Units are S.I. units (second, meters, Newtons, ...)
Angles are in degrees.

endheader
time	pelvis_tilt	pelvis_list	pelvis_rotation	pelvis_tx	pelvis_ty	pelvis_tz	bb_angle	bb_tx	bb_ty	bb_tz	hip_flexion_r	hip_adduction_r	hip_rotation_r	knee_angle_r	knee_angle_r_beta	ankle_angle_r	subtalar_angle_r	mtp_angle_r	crank_angle_r	hip_flexion_l	hip_adduction_l	hip_rotation_l	knee_angle_l	knee_angle_l_beta	ankle_angle_l	subtalar_angle_l	mtp_angle_l	crank_angle_l	lumbar_extension	lumbar_bending	lumbar_rotation	arm_flex_r	arm_add_r	arm_rot_r	elbow_flex_r	pro_sup_r	wrist_flex_r	wrist_dev_r	arm_flex_l	arm_add_l	arm_rot_l	elbow_flex_l	pro_sup_l	wrist_flex_l	wrist_dev_l
      0.00000000	    -23.24822581	     -5.33044094	     -3.83411509	      0.15745238	      1.10829851	     -0.22636805	      0.00000000	      0.50000000	      0.00000000	      0.25000000	     90.30671121	      1.34747170	      0.30842984	    106.23523645	      1.85415466	     26.47773181	     -4.20777797	      0.00000000	      0.00000000	     40.77162414	    -11.58813470	     -3.65713575	     24.30330967	      0.42417277	     -4.58225008	      3.13227565	      0.00000000	      0.00000000	    -44.21477054	      2.83472444	      6.82429285	     87.03019766	     -9.03043397	     48.39214569	     33.22208123	     32.18014659	      0.00000000	      0.00000000	     89.21610337	     -9.05190277	     52.78690836	     24.52397919	     30.24293122	      0.00000000	      0.00000000
      0.00500000	    -23.20580207	     -5.33950330	     -3.82075242	      0.15750817	      1.10835685	     -0.22641259	      0.00000000	      0.50000000	      0.00000000	      0.25000000	     90.24623899	      1.29968574	      0.30214539	    106.20965558	      1.85370819	     26.55528504	     -4.09265964	      0.00000000	      0.00000000	     40.73672063	    -11.58789208	     -3.65559503	     24.33666672	      0.42475496	     -4.56623813	      3.14556941	      0.00000000	      0.00000000	    -44.27897163	      2.84873168	      6.78069212	     87.22006973	     -9.22631190	     48.99906898	     32.58287750	     36.00754726	      0.00000000	      0.00000000	     89.20487761	     -9.33546067	     52.57411298	     24.49543482	     33.44549160	      0.00000000	      0.00000000
      0.01000000	    -23.20542990	     -5.33319173	     -3.78878196	      0.15750204	      1.10835819	     -0.22647663	      0.00000000	      0.50000000	      0.00000000	      0.25000000	     90.25614987	      1.25234096	      0.30218959	    106.20300830	      1.85359217	     26.53937458	     -4.08050740	      0.00000000	      0.00000000	     40.74125297	    -11.55361076	     -3.59875237	     24.34962781	      0.42498118	     -4.56310556	      3.11397372	      0.00000000	      0.00000000	    -44.26788447	      2.85969453	      6.76600468	     87.14722546	     -9.05243952	     48.28437023	     32.33475832	     36.68682700	      0.00000000	      0.00000000	     89.20656398	     -9.11470381	     52.13407140	     24.14185267	     33.90193332	      0.00000000	      0.00000000
      0.01500000	    -23.11264682	     -5.42684153	     -3.63085040	      0.15729948	      1.10848468	     -0.22677428	      0.00000000	      0.50000000	      0.00000000	      0.25000000	     90.15661450	      1.25696179	      0.21765004	    106.28083537	      1.85495051	     26.43221754	     -4.50998269	      0.00000000	      0.00000000	     41.02724481	    -11.68414668	     -3.45903997	     25.08092413	      0.43774471	     -4.03858215	      2.67633351	      0.00000000	      0.00000000	    -44.47169248	      3.17843749	      6.61195929	     87.29627908	     -8.39871727	     47.52004094	     31.87588179	     37.33887469	      0.00000000	      0.00000000	     89.16301667	     -9.98572263	     52.24856013	     25.02349044	     34.76798499	      0.00000000	      0.00000000
      0.02000000	    -22.74188443	     -4.93732868	     -3.87195226	      0.15878059	      1.10993280	     -0.22726155	      0.00000000	      0.50000000	      0.00000000	      0.25000000	     89.66282582	      1.35626179	      0.60894026	    106.22656286	      1.85400327	     26.47042835	     -4.73189749	      0.00000000	      0.00000000	     39.90864807	    -11.08860618	     -3.40941085	     24.05448153	      0.41982990	     -4.80553440	      2.56328061	      0.00000000	      0.00000000	    -44.89568873	      2.63434004	      6.48742614	     87.20478271	     -8.30060277	     47.01225778	     31.74693083	     36.85000893	      0.00000000	      0.00000000	     89.16428604	     -9.24054387	     51.72957936	     24.37763811	     33.63644993	      0.00000000	      0.00000000
      0.02500000	    -22.36815393	     -4.30464580	     -4.23835938	      0.16030852	      1.11131247	     -0.22749101	      0.00000000	      0.50000000	      0.00000000	      0.25000000	     89.20311603	      1.58135099	      1.28865288	    106.24399694	      1.85430756	     26.63889102	     -4.54591452	      0.00000000	      0.00000000	     38.81088822	    -10.51272938	     -3.52601296	     23.21701652	      0.40521338	     -5.12126036	      1.70814888	      0.00000000	      0.00000000	    -45.31026725	      1.86518238	      6.27960032	     87.30442582	     -8.04766337	     47.31290564	     31.42424935	     37.00942834	      0.00000000	      0.00000000	     89.15334991	     -9.86810080	     53.01439777	     25.26576638	     33.35164403	      0.00000000	      0.00000000
